<svg width="117" height="45" xmlns="http://www.w3.org/2000/svg" xmlns:xlink="http://www.w3.org/1999/xlink" xml:space="preserve" overflow="hidden"><g transform="translate(-665 -248)"><path d="M19.3008 57.4163 123.668 57.4163 123.668 85.5526 19.3008 85.5526Z" fill="#EE3124" transform="matrix(1 0 0 1.01652 652.312 196.905)"/><path d="M25.7058 64.2216 40.26 64.2216 40.26 78.7758 25.7058 78.7758Z" fill="#FFFFFF" transform="matrix(1 0 0 1.01652 652.312 196.905)"/><path d="M35.3705 66.9666 27.6502 66.9666 31.0814 71.4844 38.7732 71.4844Z" fill="#EE3124" transform="matrix(1 0 0 1.01652 652.312 196.905)"/><path d="M38.7732 71.4844 31.0814 71.4844 27.6502 76.0022 35.3705 76.0022Z" fill="#820024" transform="matrix(1 0 0 1.01652 652.312 196.905)"/><path d="M51.1829 73.9435C50.6396 74.401 49.9533 74.6297 49.2385 74.6297 47.4943 74.6297 46.1503 73.2572 46.1503 71.4844 46.1503 69.7116 47.4943 68.3391 49.2385 68.3391 49.9533 68.3391 50.6396 68.5679 51.1829 69.0254L51.2114 69.054 52.5554 67.7101 52.5268 67.6815C51.6118 66.8808 50.4394 66.4519 49.2385 66.4519 46.4363 66.4519 44.1488 68.7108 44.1488 71.4844 44.1488 74.258 46.4363 76.5169 49.2385 76.5169 50.4394 76.5169 51.6118 76.0594 52.5268 75.2874L52.5554 75.2588 51.1829 73.9435ZM54.3854 76.231 56.3011 76.231 56.3011 66.7093 54.3854 66.7093 54.3854 76.231ZM63.8785 72.8283C63.8213 72.6854 60.533 66.7379 60.533 66.7379L58.6458 66.7379 58.6458 76.2596 60.5616 76.2596C60.5616 76.2596 60.5616 70.8554 60.5616 70.5694 60.7046 70.7982 63.8785 76.3168 63.8785 76.3168 63.8785 76.3168 67.0238 70.7982 67.1668 70.5694 67.1668 70.8554 67.1668 76.2596 67.1668 76.2596L69.0826 76.2596 69.0826 66.7379 67.1954 66.7379C67.2526 66.6807 63.9643 72.6854 63.8785 72.8283ZM77.0602 71.3701C77.4605 71.1413 78.1754 70.4837 78.1754 69.4257 78.1754 67.7386 77.0602 66.7093 75.2302 66.7093L71.3987 66.7093 71.3987 76.231 75.4018 76.231C77.2032 76.231 78.3469 75.173 78.3469 73.4574 78.2897 72.1993 77.5463 71.6274 77.0602 71.3701ZM73.2858 68.4249C73.343 68.4249 75.0587 68.4249 75.0587 68.4249 75.8021 68.4249 76.231 68.7966 76.231 69.4829 76.231 70.1405 75.7735 70.5408 75.0587 70.5408 75.0587 70.5408 73.3716 70.5408 73.2858 70.5408L73.2858 68.4249ZM75.173 74.544C75.173 74.544 73.3716 74.544 73.2858 74.544L73.2858 72.3137C73.343 72.3137 75.173 72.3137 75.173 72.3137 76.0594 72.3137 76.374 72.8855 76.374 73.4288 76.374 73.9435 76.0594 74.544 75.173 74.544Z" fill="#FFFFFF" transform="matrix(1 0 0 1.01652 652.312 196.905)"/><path d="M85.7527 76.2024 82.0641 76.2024 82.0641 66.6807 85.6669 66.6807C87.2968 66.6807 88.4691 67.6529 88.4691 69.2255 88.4691 70.2263 87.8401 70.9983 87.068 71.3129 87.983 71.656 88.6121 72.428 88.6121 73.5718 88.5835 75.316 87.4683 76.2024 85.7527 76.2024ZM85.5812 67.6243 83.0935 67.6243 83.0935 70.9126 85.5812 70.9126C86.6391 70.9126 87.4683 70.3979 87.4683 69.2827 87.4398 68.139 86.6105 67.6243 85.5812 67.6243ZM85.6955 71.8276 83.0935 71.8276 83.0935 75.316 85.6955 75.316C86.8679 75.316 87.6113 74.6297 87.6113 73.5718 87.6113 72.4852 86.8393 71.8276 85.6955 71.8276Z" fill="#FFFFFF" transform="matrix(1 0 0 1.01652 652.312 196.905)"/><path d="M90.5565 76.2024 89.4413 76.2024 93.5588 66.7665 94.4738 66.7665 98.5913 76.2024 97.4762 76.2024 96.4468 73.7147 91.6144 73.7147 90.5565 76.2024ZM91.9576 72.8569 96.0751 72.8569 94.0163 67.8816 91.9576 72.8569Z" fill="#FFFFFF" transform="matrix(1 0 0 1.01652 652.312 196.905)"/><path d="M106.741 74.7727 106.741 74.7727 106.769 66.7665 107.713 66.7665 107.713 76.2024 106.512 76.2024 100.879 68.139 100.85 68.139 100.85 76.231 99.878 76.231 99.878 66.7665 101.079 66.7665Z" fill="#FFFFFF" transform="matrix(1 0 0 1.01652 652.312 196.905)"/><path d="M111.03 70.8554 111.03 70.8554 111.173 70.8554 115.633 66.7665 117.006 66.7665 112.231 71.0269 117.263 76.2024 115.862 76.2024 111.201 71.3415 111.087 71.3415 111.087 76.2024 110.115 76.2024 110.115 66.7665 111.087 66.7665 111.087 70.8554Z" fill="#FFFFFF" transform="matrix(1 0 0 1.01652 652.312 196.905)"/></g></svg>